<svg width="56" height="56" viewBox="0 0 56 56" fill="none" xmlns="http://www.w3.org/2000/svg">
<circle cx="28" cy="28" r="22" fill="#C4C4C4" fill-opacity="0.4"/>
<path d="M17 15L19.2768 42L29.5 45L39.7196 42.0019L42 15H17Z" fill="#2196F3"/>
<path d="M37.1321 23.8294L36.8446 27.2213L35.9768 37.3894L29.5 39.27L29.4946 39.2719L23.0214 37.3894L22.5696 32.0719H25.7411L25.9768 34.83L29.4964 35.8275L29.4982 35.8256L33.0232 34.8281L33.5036 30.2325L22.4178 30.2644L22.1036 27.1219L33.7696 26.9775L34.0053 23.6138L21.7911 23.6494L21.5857 20.52H29.5H37.4143L37.1321 23.8294Z" fill="#FAFAFA"/>
<path d="M28 56C31.677 56 35.318 55.2758 38.7151 53.8686C42.1123 52.4615 45.1989 50.399 47.799 47.799C50.399 45.1989 52.4615 42.1123 53.8686 38.7151C55.2758 35.318 56 31.677 56 28C56 24.323 55.2758 20.682 53.8686 17.2849C52.4615 13.8877 50.399 10.8011 47.799 8.20101C45.1989 5.60097 42.1123 3.5385 38.7151 2.13137C35.318 0.724241 31.677 -1.60727e-07 28 0L28 4.2849C31.1143 4.2849 34.1981 4.89831 37.0754 6.0901C39.9526 7.2819 42.567 9.02874 44.7691 11.2309C46.9713 13.433 48.7181 16.0474 49.9099 18.9246C51.1017 21.8019 51.7151 24.8857 51.7151 28C51.7151 31.1143 51.1017 34.1981 49.9099 37.0754C48.7181 39.9526 46.9713 42.567 44.7691 44.7691C42.567 46.9713 39.9526 48.7181 37.0754 49.9099C34.1981 51.1017 31.1143 51.7151 28 51.7151L28 56Z" fill="#3B5999"/>
</svg>
