<svg width="56" height="56" viewBox="0 0 56 56" fill="none" xmlns="http://www.w3.org/2000/svg">
<circle cx="28" cy="28" r="22" fill="#C4C4C4" fill-opacity="0.4"/>
<g clip-path="url(#clip0_288_138)">
<path d="M23.001 45C25.7604 45 28 42.76 28 40V35H23.001C20.2415 35 18.002 37.24 18.002 40C18.002 42.76 20.2415 45 23.001 45Z" fill="#0ACF83"/>
<path d="M18.002 30C18.002 27.24 20.2415 25 23.001 25H28V35H23.001C20.2415 35 18.002 32.76 18.002 30Z" fill="#A259FF"/>
<path d="M18.01 20C18.01 17.24 20.2496 15 23.009 15H28.008V25H23.009C20.2496 25 18.01 22.76 18.01 20Z" fill="#F24E1E"/>
<path d="M28 15H32.999C35.7584 15 37.998 17.24 37.998 20C37.998 22.76 35.7584 25 32.999 25H28V15Z" fill="#FF7262"/>
<path d="M37.998 30C37.998 32.76 35.7584 35 32.999 35C30.2396 35 28 32.76 28 30C28 27.24 30.2396 25 32.999 25C35.7584 25 37.998 27.24 37.998 30Z" fill="#1ABCFE"/>
</g>
<path d="M28 56C31.677 56 35.318 55.2758 38.7151 53.8686C42.1123 52.4615 45.1989 50.399 47.799 47.799C50.399 45.1989 52.4615 42.1123 53.8686 38.7151C55.2758 35.318 56 31.677 56 28C56 24.323 55.2758 20.682 53.8686 17.2849C52.4615 13.8877 50.399 10.8011 47.799 8.20101C45.1989 5.60097 42.1123 3.5385 38.7151 2.13137C35.318 0.724241 31.677 -1.60727e-07 28 0L28 4.2849C31.1143 4.2849 34.1981 4.89831 37.0754 6.0901C39.9526 7.2819 42.567 9.02874 44.7691 11.2309C46.9713 13.433 48.7181 16.0474 49.9099 18.9246C51.1017 21.8019 51.7151 24.8857 51.7151 28C51.7151 31.1143 51.1017 34.1981 49.9099 37.0754C48.7181 39.9526 46.9713 42.567 44.7691 44.7691C42.567 46.9713 39.9526 48.7181 37.0754 49.9099C34.1981 51.1017 31.1143 51.7151 28 51.7151L28 56Z" fill="#3B5999"/>
<defs>
<clipPath id="clip0_288_138">
<rect width="20" height="30" fill="white" transform="translate(18 15)"/>
</clipPath>
</defs>
</svg>
