<svg width="56" height="56" viewBox="0 0 56 56" fill="none" xmlns="http://www.w3.org/2000/svg">
<circle cx="28" cy="28" r="22" fill="#C4C4C4" fill-opacity="0.4"/>
<path d="M16 15L17.7573 41.256L28.5 45L39.2427 41.256L41 15H16Z" fill="#FF7816"/>
<path d="M36.3084 22.9688H24.0238L24.3221 27.3633H36.0101L35.2971 38.0038L28.5 40.4121L21.7028 38.0038L21.4708 34.4531H24.7865L24.8527 35.4199L28.5 36.703L32.1472 35.4199L32.4455 30.8789H21.2221L20.4595 19.4531H36.5404L36.3084 22.9688Z" fill="#ECECF1"/>
<path d="M0 28C-4.84136e-07 33.5379 1.64217 38.9514 4.71885 43.556C7.79553 48.1605 12.1685 51.7494 17.2849 53.8686C22.4012 55.9879 28.0311 56.5424 33.4625 55.462C38.894 54.3816 43.8831 51.7149 47.799 47.799C51.7149 43.8831 54.3816 38.894 55.462 33.4625C56.5424 28.0311 55.9879 22.4012 53.8686 17.2849C51.7494 12.1685 48.1605 7.79553 43.556 4.71885C38.9514 1.64217 33.5379 4.18098e-07 28 0L28 4.2849C32.6904 4.2849 37.2755 5.67577 41.1754 8.28162C45.0753 10.8875 48.115 14.5913 49.9099 18.9246C51.7048 23.258 52.1745 28.0263 51.2594 32.6266C50.3444 37.2269 48.0857 41.4525 44.7691 44.7691C41.4525 48.0857 37.2269 50.3444 32.6266 51.2594C28.0263 52.1745 23.258 51.7048 18.9246 49.9099C14.5913 48.115 10.8875 45.0753 8.28161 41.1754C5.67577 37.2755 4.2849 32.6904 4.2849 28L0 28Z" fill="#3B5999"/>
</svg>
