<svg width="56" height="56" viewBox="0 0 56 56" fill="none" xmlns="http://www.w3.org/2000/svg">
<circle cx="28" cy="28" r="22" fill="#C4C4C4" fill-opacity="0.4"/>
<path d="M16 15L17.7573 41.256L28.5 45L39.2427 41.256L41 15H16Z" fill="#FF7816"/>
<path d="M36.3084 22.9688H24.0238L24.3221 27.3633H36.0101L35.2971 38.0038L28.5 40.4121L21.7028 38.0038L21.4708 34.4531H24.7865L24.8527 35.4199L28.5 36.703L32.1472 35.4199L32.4455 30.8789H21.2221L20.4595 19.4531H36.5404L36.3084 22.9688Z" fill="#ECECF1"/>
<path d="M28 0C34.8078 8.11826e-08 41.3825 2.48028 46.494 6.97686C51.6055 11.4734 54.9037 17.6782 55.7715 24.4305C56.6394 31.1828 55.0175 38.02 51.2092 43.663C47.401 49.3061 41.6673 53.3683 35.0807 55.0899C28.4941 56.8115 21.506 56.0744 15.4235 53.0166C9.34103 49.9588 4.58095 44.7897 2.03376 38.4764C-0.513434 32.163 -0.673247 25.1379 1.58422 18.7153C3.84168 12.2926 8.36177 6.9124 14.2989 3.58116L16.3956 7.31803C11.3671 10.1395 7.53868 14.6963 5.62668 20.1361C3.71468 25.5759 3.85004 31.5259 6.00743 36.8732C8.16482 42.2204 12.1965 46.5984 17.3481 49.1883C22.4998 51.7781 28.4185 52.4024 33.9971 50.9443C39.5757 49.4862 44.432 46.0456 47.6575 41.2661C50.883 36.4866 52.2567 30.6957 51.5216 24.9768C50.7865 19.2578 47.9931 14.0025 43.6638 10.1941C39.3345 6.38562 33.766 4.2849 28 4.2849L28 0Z" fill="#3B5999"/>
</svg>
